<svg width="188" height="40" viewBox="0 0 188 40" fill="none" xmlns="http://www.w3.org/2000/svg" class="svg-graphic svg-graphic--logo-true-classic"><path fill="currentColor" d="M0 5.314c1.589.052 3.178.102 4.767.152v34.135c1.964-.085 3.926-.166 5.89-.243V5.644l4.767.135V.687C10.282.496 5.141.283 0 .053v5.26ZM33.323 24.357c0-2.182-.954-3.998-3.254-4.941 2.132-.678 3.254-2.387 3.254-4.518V7.725c0-4.05-2.525-6.509-7.182-6.664C23.28.968 20.419.869 17.559.766v38.332c1.963-.07 3.926-.138 5.89-.203v-17.06l1.458-.003c1.795-.004 2.525.885 2.525 2.668v9.444c0 1.889.112 3.67.617 4.807 1.963-.06 3.927-.116 5.892-.17-.506-1.18-.617-2.997-.617-4.92v-9.304h-.001Zm-5.891-9.51c0 1.47-.673 2.252-1.964 2.246l-2.02-.01V5.83l2.02.05c1.29.032 1.964.835 1.964 2.303v6.664ZM45.723 31.6c0 1.43-.729 2.362-2.02 2.385-1.29.023-1.964-.89-1.964-2.328V1.51c-1.964-.049-3.928-.1-5.891-.155V32.37c0 4.047 3.255 6.493 7.856 6.38 4.658-.112 7.912-2.659 7.913-6.614V1.73c-1.965-.04-3.928-.082-5.893-.127V31.6ZM54.424 38.123c4.19-.073 8.38-.134 12.57-.184V33.18c-2.243.02-4.489.041-6.733.065V21.668l5.78-.004v-4.76l-5.78-.017V6.669c2.245.027 4.49.05 6.734.072V1.984c-4.19-.054-8.382-.12-12.571-.2v36.34ZM85.267 1.806c-4.602-.021-7.802 2.389-7.802 6.275v23.897c0 3.886 3.2 6.299 7.802 6.28 4.659-.018 7.577-2.448 7.577-6.318v-7.987c-1.908 0-3.817 0-5.725.002v7.397c0 1.39-.618 2.284-1.908 2.287-1.291.004-1.852-.888-1.852-2.279V8.703c0-1.39.56-2.282 1.852-2.278 1.29.004 1.908.898 1.908 2.288v6.852c1.908.002 3.817.003 5.725.003V8.125c0-3.87-2.92-6.298-7.577-6.318v-.001ZM101.432 1.961c-1.945.007-3.89.011-5.836.013v36.098c4.247.003 8.493.018 12.739.044v-4.789c-2.301-.01-4.602-.018-6.903-.023V1.96ZM136.047 1.395c-4.601.098-7.632 2.612-7.632 6.538v5.692c0 2.77 1.066 4.125 2.749 5.485 1.778 1.513 3.555 3.032 5.332 4.56 1.009.97 1.346 1.58 1.346 3.208v4.78c0 1.424-.56 2.279-1.852 2.26-1.29-.02-1.852-.886-1.852-2.305V24.22l-5.724-.02v7.908c0 3.926 2.918 6.437 7.576 6.53 4.602.093 7.744-2.34 7.744-6.34V25.59c0-2.815-1.065-4.202-2.749-5.578-1.777-1.53-3.555-3.05-5.331-4.56-1.01-.96-1.347-1.564-1.346-3.185V8.419c0-1.418.561-2.286 1.851-2.306 1.291-.02 1.853.835 1.853 2.258v6.814c1.908-.01 3.815-.024 5.723-.036V7.726c0-4-3.03-6.43-7.688-6.33ZM153.5.966c-4.6.139-7.631 2.726-7.631 6.725v5.8c0 2.823 1.066 4.203 2.75 5.591a929.19 929.19 0 0 1 5.331 4.662c1.009.992 1.346 1.62 1.346 3.284v4.89c0 1.457-.561 2.33-1.851 2.302-1.29-.027-1.851-.916-1.851-2.365V24.3c-1.908-.011-3.815-.021-5.724-.03v8.06c0 3.998 2.918 6.58 7.575 6.714 4.6.136 7.743-2.334 7.743-6.44v-6.88c0-2.888-1.066-4.311-2.749-5.722a924.722 924.722 0 0 0-5.33-4.664c-1.011-.977-1.348-1.595-1.348-3.25V8.155c0-1.448.562-2.34 1.851-2.369 1.292-.028 1.852.844 1.852 2.3v6.974c1.908-.015 3.815-.032 5.723-.048V7.398c0-4.104-3.03-6.574-7.687-6.433v.001ZM163.824 38.94c1.982.064 3.965.131 5.946.202V.804c-1.981.071-3.964.14-5.946.206v37.93ZM187.999 15.019V6.713c0-4.331-2.916-6.907-7.571-6.702-4.599.203-7.797 2.949-7.797 7.121v25.734c0 4.172 3.198 6.918 7.797 7.123 4.655.208 7.571-2.365 7.571-6.696v-8.915c-1.907-.02-3.814-.04-5.72-.058v8.147c0 1.532-.618 2.495-1.907 2.453-1.29-.042-1.851-1.035-1.851-2.552V7.63c0-1.518.561-2.51 1.851-2.551 1.289-.041 1.907.922 1.907 2.454v7.546l5.72-.06ZM118.063 1.797c-4.658.057-7.914 2.524-7.913 6.414v29.882c1.965.013 3.93.03 5.894.048v-8.638c1.329.006 2.656.013 3.985.021v8.66c1.964.021 3.929.046 5.894.074V8.087c0-3.934-3.256-6.347-7.858-6.29h-.002Zm-2.02 23.335V8.773c0-1.4.73-2.306 2.02-2.318 1.291-.012 1.965.883 1.965 2.287V25.14l-3.985-.01v.002Z"></path></svg>