<svg data-name="wlcr-logo" class="svg-mark" xmlns="http://www.w3.org/2000/svg" viewBox="0 0 800 400"><path fill="currentColor" d="M511.73 98.52c-62.05-3.2-113.67 88.85-116.93 150.12-2.41 45.8 19.93 74.37 59.76 76.33 1.64 0 3.26.13 4.88.13 50.13 0 75.25-41.17 81.61-63.61a14.53 14.53 0 00-3.65-14.18 14.86 14.86 0 00-14.23-4 14.71 14.71 0 00-10.57 10.23c-.51 1.8-13.1 44.37-56.5 42.16-8.42-.46-34.1-1.78-31.77-45.8 2.75-52.26 47.59-124.4 85.86-122.41 14.38.74 21.88 6.67 22.9 18.09 1.31 14.43-8.29 31.68-19 34.17a14.65 14.65 0 00-10.8 17.59 14.8 14.8 0 0017.61 10.93c27.45-6.18 44.12-39.33 41.55-65.08-2.75-31.11-28.02-43.47-50.72-44.67zM103.76 231a49.1 49.1 0 0025 24.88 45.34 45.34 0 0019.34 4.33c16.56 0 34-8.88 49.95-25.88 33.77-36 56-103.2 33.87-142.08a14.83 14.83 0 00-26-.67 14.54 14.54 0 00.36 15c14.9 26.21-4.11 80.4-29.79 107.75-6.19 6.57-21.93 21.17-35.21 15a19 19 0 01-11.61-13 43.78 43.78 0 01.9-20.63 329.48 329.48 0 0027.1-55.19v-.23a8.63 8.63 0 00.28-.86l.15-.56a4.3 4.3 0 01.18-.79c.05-.26 0-.43.13-.66v-4.86l-.15-.79a2.29 2.29 0 00-.21-.66c-.08-.23 0-.44-.2-.66s-.18-.49-.29-.72l-.23-.56-.38-.76-.26-.48a6.76 6.76 0 00-.46-.72c-.1-.16-.22-.32-.34-.48s-.3-.41-.46-.61l-.43-.53-.57-.56-.56-.56-.47-.39-.69-.58h-.18l-.31-.2-.67-.51-.69-.31-.62-.3c-.28-.16-.56-.26-.84-.39l-.29-.12h-.2a6.58 6.58 0 00-.95-.31l-.46-.13-.93-.2h-4.83q-.44.06-.87.15h-.51l-1 .28H139l-1 .41-.28.13-1 .48-.28.15c-.31.18-.62.36-.9.56l-.33.23-.75.56-.41.36-.56.53-.52.51-.43.49-.54.68-.16.18c-2.87 3.94-20.8 29.24-28.74 57.38-17.74 27.35-35.95 42.26-48.79 47.07-6.57 2.54-12.15 2.54-16.51.15-5.81-3.1-7.22-6.23-7.71-8.63-4.09-17.3 22.33-53.89 41.62-80.61 26.73-37.07 47.87-66.35 36-88.8-10.07-18.57-36.34-18-44.94-17.81a14.65 14.65 0 00.67 29.29c12.5-.28 16.84 1.73 18 2.37 1.39 9.16-21.44 40.71-33.79 57.91-26.43 36.43-53.58 74.09-46.51 104.32 2 8.21 7.42 19.71 22.54 27.81a45 45 0 0021.19 5.09 57.44 57.44 0 0019.67-3.72c13.3-4.91 26.58-14.38 39.22-27.54zm432.7 106.9v-.13c-6.7 5.09-32.51 22-83.62 22.29h-.69c-37.8 0-79.82-18.32-124.27-37.73-21.34-9.34-43-18.78-65.13-26.72 16.85-22.47 34.31-51.4 53.93-89.05 24.91-48.07 43.25-82.8 57.71-107.68a181.35 181.35 0 0040.49 4.35c36.81-.2 52.19-17.48 58.1-27.76a43.74 43.74 0 000-43.94 43.76 43.76 0 00-38.48-21h-.3c-28.74.18-48.18 14.58-73.73 54.24-10.28-3.25-20.16-7.09-30.38-11C292 39.09 252.48 23.92 198.44 37.86a14.65 14.65 0 00-10 17.73 14.81 14.81 0 0017.48 10.62c44.81-11.58 78.2 1.27 113.56 14.86 8.37 3.2 16.82 6.46 25.53 9.44-15 26.15-32.44 60-54.65 102.69-17.26 33.25-36.31 66.89-57.22 92.9a258.86 258.86 0 00-71.29-10.18c-42.81.28-62.17 23.08-62 44.14 0 21.45 20.16 43.05 58.24 43h.62c29.3-.18 56.86-14.33 84.05-43.26 24.78 8.22 49.26 18.91 73.32 29.42 47.38 20.68 92.17 40.22 136.11 40.22h.9c58.76-.35 90.6-20 101.54-28.42a14.55 14.55 0 002.19-20.2 14.87 14.87 0 00-20.36-2.92zm-102-298.08h.15a13.73 13.73 0 0112.84 6.52 14.64 14.64 0 010 14.68c-4.67 8.14-16.56 12.85-32.59 12.95a142.23 142.23 0 01-23.68-1.76C408.33 47 419.74 39.9 434.43 39.82zm-276 293.86H158c-19.72 0-28.66-8.12-28.68-13.92s10.08-14.53 32.68-14.68h1.11a216.65 216.65 0 0147 5.52c-16.21 14.25-33.42 23.08-51.65 23.08zm641-87.48a14.68 14.68 0 00-7-8.83 14.87 14.87 0 00-20.14 5.6c-8 14-36.31 54.14-61.22 54.3-2.24 0-2.36-.36-2.57-.64-6.57-10.18 3-56.79 27.81-110.2a14.5 14.5 0 00-.8-13.62 14.81 14.81 0 00-11.78-7.06 353.55 353.55 0 01-59.76-7.64c6.21-36.36-5-52.39-16-59.41-12.53-8-29.28-6.74-42.66 3.26s-19.21 26.21-14.61 41.12c4.86 15.8 19.34 27 38.52 34.8-12.2 48-25.16 77.56-34.31 94.4-9.6 17.81-16.87 25-18.64 26.61h-.16l-.89.79a14.52 14.52 0 00-2.15 20.55 14.84 14.84 0 0020.74 2.12c3.83-2.82 36.41-29.59 63.64-135.87a349.58 349.58 0 0043.65 6.8c-14.22 34.27-34.31 93.15-17.41 119.1A31.34 31.34 0 00711 326.45h.25c46.31-.18 82.8-62.08 86.81-69.11a14.55 14.55 0 001.39-11.14zm-163.93-97.58c-10.45-5.09-15.4-10.18-16.53-14.14-1.42-4.58 2.82-8.2 4.16-9.19a12 12 0 016.7-2.54 4.11 4.11 0 012.11.5c2.03 1.28 5.75 8.17 3.56 25.37z"/></svg>
