<svg width="137" height="46" viewBox="0 0 137 46" fill="none" xmlns="http://www.w3.org/2000/svg">
<path d="M54.0437 3.28487C51.1093 2.75646 48.1469 2.33754 45.2689 1.4175C48.4913 0.715795 51.7548 0.412592 55.0424 0.440093C65.8325 0.52937 76.6331 0.237996 87.4106 1.06251C99.2288 1.96601 110.983 3.38946 122.39 6.75289C126.06 7.83516 129.442 9.49893 132.271 12.0487C136.451 15.8143 137.432 20.571 135.021 25.47C133.474 28.6128 131.025 31.0584 128.201 33.1857C121.982 37.8697 114.676 40.4292 107.128 42.4571C96.6262 45.2774 85.8392 45.9476 74.9444 45.6179C59.4217 45.1485 44.0803 43.0909 28.8605 40.103C22.7619 38.9061 16.7216 37.4482 10.9329 35.1718C8.54601 34.2337 6.24479 33.1402 4.28928 31.4931C0.463786 28.2644 -0.0870431 23.9782 2.86868 20.0863C5.18129 17.0416 8.34508 14.9382 11.7992 13.2182C20.3964 8.93672 29.7035 6.66896 39.2234 5.041C44.1116 4.20466 49.0596 3.77611 54.0451 3.28386L54.0437 3.28487ZM85.7276 4.81888C91.2914 5.54334 96.727 6.383 102.139 7.3562C102.43 7.40841 102.725 7.44571 103.013 7.50821C103.566 7.62798 104.135 7.80366 104.05 8.47149C103.97 9.09775 103.401 9.24869 102.834 9.24827C101.899 9.24642 100.955 9.25774 100.027 9.15218C95.3221 8.6155 90.6206 8.03697 85.9161 7.48392C73.9326 6.07666 61.9397 5.47084 49.9205 6.60446C38.6022 7.67212 27.5304 9.68089 17.0457 13.9121C13.508 15.3401 10.1743 17.1037 7.38263 19.6462C2.81509 23.8048 3.33661 27.4894 8.91816 30.452C12.1403 32.1615 15.636 33.2125 19.1546 34.1757C29.1596 36.9154 39.3856 38.5698 49.6564 39.9416C63.1261 41.7416 76.6402 42.8219 90.2148 41.7603C100.716 40.9398 110.795 38.6146 120.178 34.0691C124.499 31.9763 128.364 29.2899 131.04 25.3554C133.975 21.0404 133.199 16.9673 128.902 13.7612C126.039 11.6257 122.716 10.4036 119.261 9.52786C108.664 6.84003 97.8363 5.59122 86.9693 4.6092C86.5951 4.57531 86.1907 4.47087 85.7276 4.81888Z" fill="#E6DED7"/>
</svg>
