<svg width="38" height="33" viewBox="0 0 38 33" fill="none" xmlns="http://www.w3.org/2000/svg">
<path d="M0.796974 32.7827V16.7817C0.796974 12.0145 2.26019 8.16764 5.18662 5.24121C8.11305 2.31478 11.9599 0.851562 16.7271 0.851562V9.56006C14.5559 9.56006 12.8095 10.2209 11.4879 11.5425C10.1663 12.8641 9.50547 14.6105 9.50547 16.7817H16.7271V32.7827H0.796974ZM21.4 32.7827V16.7817C21.4 12.0145 22.8632 8.16764 25.7896 5.24121C28.7161 2.31478 32.5629 0.851562 37.3302 0.851562V9.56006C35.159 9.56006 33.4125 10.2209 32.0909 11.5425C30.7693 12.8641 30.1085 14.6105 30.1085 16.7817H37.3302V32.7827H21.4Z" fill="#E6DED7"/>
</svg>
