
<svg xmlns="http://www.w3.org/2000/svg" viewBox="0 0 137 42">
  <path d="M69.1,22.8c-2.4,0-4.3,1.8-4.3,4.3c0,2.4,1.9,4.3,4.3,4.3c2.4,0,4.3-1.8,4.3-4.3C73.4,24.5,71.5,22.8,69.1,22.8z M69.1,29.6c-1.3,0-2.4-1.1-2.4-2.6c0-1.5,1.1-2.6,2.4-2.6c1.3,0,2.4,1,2.4,2.6C71.5,28.5,70.4,29.6,69.1,29.6z M59.8,22.8c-2.4,0-4.3,1.8-4.3,4.3c0,2.4,1.9,4.3,4.3,4.3c2.4,0,4.3-1.8,4.3-4.3C64.1,24.5,62.2,22.8,59.8,22.8z M59.8,29.6c-1.3,0-2.4-1.1-2.4-2.6c0-1.5,1.1-2.6,2.4-2.6c1.3,0,2.4,1,2.4,2.6C62.2,28.5,61.1,29.6,59.8,29.6z M48.7,24.1v1.8h4.3c-0.1,1-0.5,1.8-1,2.3c-0.6,0.6-1.6,1.3-3.3,1.3c-2.7,0-4.7-2.1-4.7-4.8s2.1-4.8,4.7-4.8c1.4,0,2.5,0.6,3.3,1.3l1.3-1.3c-1.1-1-2.5-1.8-4.5-1.8c-3.6,0-6.7,3-6.7,6.6s3.1,6.6,6.7,6.6c2,0,3.4-0.6,4.6-1.9c1.2-1.2,1.6-2.9,1.6-4.2c0-0.4,0-0.8-0.1-1.1L48.7,24.1L48.7,24.1z M94.1,25.5c-0.4-0.9-1.4-2.7-3.6-2.7c-2.2,0-4,1.7-4,4.3c0,2.4,1.8,4.3,4.2,4.3c1.9,0,3.1-1.2,3.5-1.9l-1.5-1c-0.5,0.7-1.1,1.2-2.1,1.2c-1,0-1.6-0.4-2.1-1.3l5.7-2.4L94.1,25.5z M88.3,26.9c0-1.6,1.3-2.5,2.2-2.5c0.7,0,1.4,0.4,1.6,0.9L88.3,26.9z M83.6,31h1.9V18.5h-1.9V31z M80.6,23.7L80.6,23.7c-0.5-0.5-1.3-1-2.3-1c-2.1,0-4.1,1.9-4.1,4.3c0,2.4,1.9,4.2,4.1,4.2c1,0,1.8-0.5,2.2-1h0.1v0.6c0,1.6-0.9,2.5-2.3,2.5c-1.1,0-1.9-0.8-2.1-1.5l-1.6,0.7c0.5,1.1,1.7,2.5,3.8,2.5c2.2,0,4-1.3,4-4.4V23h-1.8L80.6,23.7L80.6,23.7z M78.4,29.6c-1.3,0-2.4-1.1-2.4-2.6c0-1.5,1.1-2.6,2.4-2.6c1.3,0,2.3,1.1,2.3,2.6C80.7,28.5,79.7,29.6,78.4,29.6z M102.8,18.5h-4.5V31h1.9v-4.7h2.6c2.1,0,4.1-1.5,4.1-3.9S104.9,18.5,102.8,18.5z M102.9,24.5h-2.7v-4.3h2.7c1.4,0,2.2,1.2,2.2,2.1C105,23.4,104.2,24.5,102.9,24.5z M114.4,22.7c-1.4,0-2.8,0.6-3.3,1.9l1.7,0.7c0.4-0.7,1-0.9,1.7-0.9c1,0,1.9,0.6,2,1.6v0.1c-0.3-0.2-1.1-0.5-1.9-0.5c-1.8,0-3.6,1-3.6,2.8c0,1.7,1.5,2.8,3.1,2.8c1.3,0,1.9-0.6,2.4-1.2h0.1v1h1.8v-4.8C118.2,24,116.5,22.7,114.4,22.7z M114.2,29.6c-0.6,0-1.5-0.3-1.5-1.1c0-1,1.1-1.3,2-1.3c0.8,0,1.2,0.2,1.7,0.4C116.2,28.8,115.2,29.6,114.2,29.6z M124.7,23l-2.1,5.4h-0.1l-2.2-5.4h-2l3.3,7.6l-1.9,4.2h1.9l5.1-11.8H124.7z M107.9,31h1.9V18.5h-1.9V31z"/>
  <path  d="M48.4,11.2c0,0.8-0.2,1.5-0.7,2c-0.6,0.6-1.3,0.9-2.2,0.9c-0.9,0-1.6-0.3-2.2-0.9c-0.6-0.6-0.9-1.3-0.9-2.2c0-0.9,0.3-1.6,0.9-2.2c0.6-0.6,1.3-0.9,2.2-0.9c0.4,0,0.8,0.1,1.2,0.3c0.4,0.2,0.7,0.4,0.9,0.7l-0.5,0.5c-0.4-0.5-0.9-0.7-1.6-0.7c-0.6,0-1.2,0.2-1.6,0.7c-0.5,0.4-0.7,1-0.7,1.7c0,0.7,0.2,1.3,0.7,1.7c0.5,0.4,1,0.7,1.6,0.7c0.7,0,1.2-0.2,1.7-0.7c0.3-0.3,0.5-0.7,0.5-1.2h-2.2v-0.7h2.9C48.4,10.9,48.4,11.1,48.4,11.2z"/>
  <path  d="M53,8.7h-2.7v1.9h2.5v0.7h-2.5v1.9H53V14h-3.5V8H53V8.7z"/>
  <path  d="M56.3,14h-0.8V8.7h-1.7V8H58v0.7h-1.7V14z"/>
  <path  d="M60.9,14V8h0.8v6H60.9z"/>
  <path  d="M65.1,14h-0.8V8.7h-1.7V8h4.1v0.7h-1.7V14z"/>
  <path  d="M74.6,13.2c-0.6,0.6-1.3,0.9-2.2,0.9s-1.6-0.3-2.2-0.9c-0.6-0.6-0.9-1.3-0.9-2.2c0-0.9,0.3-1.6,0.9-2.2c0.6-0.6,1.3-0.9,2.2-0.9c0.9,0,1.6,0.3,2.2,0.9c0.6,0.6,0.9,1.3,0.9,2.2C75.5,11.9,75.2,12.6,74.6,13.2z M70.8,12.7c0.4,0.4,1,0.7,1.6,0.7c0.6,0,1.2-0.2,1.6-0.7c0.4-0.4,0.7-1,0.7-1.7c0-0.7-0.2-1.3-0.7-1.7c-0.4-0.5-1-0.7-1.6-0.7c-0.6,0-1.2,0.2-1.6,0.7c-0.4,0.4-0.7,1-0.7,1.7C70.1,11.7,70.3,12.3,70.8,12.7z"/>
  <path  d="M76.6,14V8h0.9l2.9,4.7h0l0-1.2V8h0.8v6h-0.8l-3.1-4.9h0l0,1.2V14H76.6z"/>
  <path  d="M48.4,11.2c0,0.8-0.2,1.5-0.7,2c-0.6,0.6-1.3,0.9-2.2,0.9c-0.9,0-1.6-0.3-2.2-0.9c-0.6-0.6-0.9-1.3-0.9-2.2c0-0.9,0.3-1.6,0.9-2.2c0.6-0.6,1.3-0.9,2.2-0.9c0.4,0,0.8,0.1,1.2,0.3c0.4,0.2,0.7,0.4,0.9,0.7l-0.5,0.5c-0.4-0.5-0.9-0.7-1.6-0.7c-0.6,0-1.2,0.2-1.6,0.7c-0.5,0.4-0.7,1-0.7,1.7c0,0.7,0.2,1.3,0.7,1.7c0.5,0.4,1,0.7,1.6,0.7c0.7,0,1.2-0.2,1.7-0.7c0.3-0.3,0.5-0.7,0.5-1.2h-2.2v-0.7h2.9C48.4,10.9,48.4,11.1,48.4,11.2z"/>
  <path  d="M53,8.7h-2.7v1.9h2.5v0.7h-2.5v1.9H53V14h-3.5V8H53V8.7z"/>
  <path  d="M56.3,14h-0.8V8.7h-1.7V8H58v0.7h-1.7V14z"/>
  <path  d="M60.9,14V8h0.8v6H60.9z"/>
  <path  d="M65.1,14h-0.8V8.7h-1.7V8h4.1v0.7h-1.7V14z"/>
  <path  d="M74.6,13.2c-0.6,0.6-1.3,0.9-2.2,0.9s-1.6-0.3-2.2-0.9c-0.6-0.6-0.9-1.3-0.9-2.2c0-0.9,0.3-1.6,0.9-2.2c0.6-0.6,1.3-0.9,2.2-0.9c0.9,0,1.6,0.3,2.2,0.9c0.6,0.6,0.9,1.3,0.9,2.2C75.5,11.9,75.2,12.6,74.6,13.2z M70.8,12.7c0.4,0.4,1,0.7,1.6,0.7c0.6,0,1.2-0.2,1.6-0.7c0.4-0.4,0.7-1,0.7-1.7c0-0.7-0.2-1.3-0.7-1.7c-0.4-0.5-1-0.7-1.6-0.7c-0.6,0-1.2,0.2-1.6,0.7c-0.4,0.4-0.7,1-0.7,1.7C70.1,11.7,70.3,12.3,70.8,12.7z"/>
  <path  d="M76.6,14V8h0.9l2.9,4.7h0l0-1.2V8h0.8v6h-0.8l-3.1-4.9h0l0,1.2V14H76.6z"/>
  <path  d="M11.2,9C11,9.2,11,9.6,11,9.9v22.1c0,0.4,0.1,0.7,0.2,1l12-12L11.2,9z M11.9,33.8c0.4,0.2,1,0.1,1.7-0.2l14.2-8l-3.8-3.8L11.9,33.8z M28.6,25l4.4-2.5c1.4-0.8,1.4-2.1,0-2.9L28.6,17l-4,4L28.6,25z M27.7,16.5l-14.2-8c-0.6-0.4-1.2-0.4-1.7-0.2l12,12L27.7,16.5z"/>
  <path  d="M6,2h125V0H6V2z M135,6v30h2V6H135z M131,40H6v2h125V40z M2,36V6H0v30H2z M6,40c-2.2,0-4-1.8-4-4H0c0,3.3,2.7,6,6,6V40z M135,36c0,2.2-1.8,4-4,4v2c3.3,0,6-2.7,6-6H135z M131,2c2.2,0,4,1.8,4,4h2c0-3.3-2.7-6-6-6V2z M6,0C2.7,0,0,2.7,0,6h2c0-2.2,1.8-4,4-4V0z"/>
  </svg>
  