<svg xmlns="http://www.w3.org/2000/svg" width="20" height="20" viewBox="0 0 20 20">
  <path d="M0,10C0,4.49,4.49,0,10,0s10,4.49,10,10-4.49,10-10,10S0,15.51,0,10Zm1.5,0c0,4.69,3.81,8.5,8.5,8.5s8.5-3.81,8.5-8.5S14.69,1.5,10,1.5,1.5,5.31,1.5,10z"/>
  <path d="M8.7,14.75c.18,0,.37-.07,.51-.2,.3-.28,.32-.76,.04-1.06l-3.23-3.49,3.23-3.49c.28-.3,.26-.78-.04-1.06-.3-.28-.78-.26-1.06,.04l-3.7,4c-.27,.29-.27,.73,0,1.02l3.7,4c.15,.16,.35,.24,.55,.24z"/>
  <path d="M5.29,10.75H15c.41,0,.75-.34,.75-.75s-.34-.75-.75-.75H5.29c-.41,0-.75,.34-.75,.75,0,.41,.34,.75,.75,.75z"/>
</svg>