<svg xmlns="http://www.w3.org/2000/svg"
  viewBox="0 0 19.7 19.71"
  width="22"
>
  <path d="M9.88,19.71c-2.57,0-5.11-1-7-2.88h0C-.96,12.98-.96,6.73,2.88,2.88,4.74,1.02,7.22,0,9.85,0h0c2.63,0,5.11,1.02,6.97,2.88,2.91,2.91,3.71,7.38,1.97,11.12-.17,.43-.29,.76-.29,1.01,0,.31,.14,.72,.27,1.11,.27,.8,.61,1.79-.12,2.53-.74,.74-1.74,.39-2.54,.12-.39-.13-.79-.27-1.1-.28-.26,0-.62,.15-1.04,.32-1.3,.6-2.7,.9-4.09,.9Zm-6.02-3.86c2.5,2.5,6.35,3.19,9.57,1.7,.56-.23,1.06-.43,1.59-.43,.53,0,1.07,.19,1.54,.35,.39,.14,.99,.34,1.12,.21,.13-.13-.07-.72-.21-1.11-.16-.48-.35-1.02-.35-1.55s.21-1.05,.41-1.55c1.5-3.25,.82-7.1-1.69-9.6-1.6-1.6-3.73-2.48-6-2.48s-4.4,.88-6,2.48C.55,7.16,.55,12.54,3.85,15.85h0z"/>
  <path d="M6.24,11.15h0c-.51,0-.92-.41-.92-.92s.41-.92,.92-.92,.92,.41,.92,.92-.41,.92-.91,.92z"/>
  <path d="M9.91,11.15h0c-.51,0-.92-.41-.92-.92s.41-.92,.92-.92,.92,.41,.92,.92-.41,.92-.91,.92z"/>
  <path d="M13.59,11.15h0c-.51,0-.92-.41-.92-.92s.41-.92,.92-.92,.92,.41,.92,.92-.41,.92-.91,.92z"/>
</svg>