<svg xmlns="http://www.w3.org/2000/svg"
  viewBox="0 0 20 20"
  width="20" height="20"
>
  <rect class="rect" width="20" height="20" rx="6.28" ry="6.28"/>
  <path d="M12.96,20H7.04c-3.88,0-7.04-3.16-7.04-7.04V7.04C0,3.16,3.16,0,7.04,0h5.93c3.88,0,7.04,3.16,7.04,7.04v5.93c0,3.88-3.16,7.04-7.04,7.04ZM7.04,1.5C3.98,1.5,1.5,3.98,1.5,7.04v5.93c0,3.05,2.48,5.54,5.54,5.54h5.93c3.05,0,5.54-2.48,5.54-5.54V7.04c0-3.05-2.48-5.54-5.54-5.54H7.04z"/>
  <path d="M12.12,13.11c-.19,0-.38-.07-.53-.22l-4.24-4.24c-.29-.29-.29-.77,0-1.06s.77-.29,1.06,0l4.24,4.24c.29,.29,.29,.77,0,1.06-.15,.15-.34,.22-.53,.22z"/>
  <path d="M7.88,13.11c-.19,0-.38-.07-.53-.22-.29-.29-.29-.77,0-1.06l4.24-4.24c.29-.29,.77-.29,1.06,0s.29,.77,0,1.06l-4.24,4.24c-.15,.15-.34,.22-.53,.22z"/>
</svg>
