<svg xmlns="http://www.w3.org/2000/svg" width="20" height="16" viewBox="0 0 20 16">

  <path d="M16,16H4c-2.21,0-4-1.79-4-4V4C0,1.79,1.79,0,4,0h12c2.21,0,4,1.79,4,4V12c0,2.21-1.79,4-4,4ZM4,1.5c-1.38,0-2.5,1.12-2.5,2.5V12c0,1.38,1.12,2.5,2.5,2.5h12c1.38,0,2.5-1.12,2.5-2.5V4c0-1.38-1.12-2.5-2.5-2.5H4z"/>
  <path d="M6.53,3.47c-.29-.29-.77-.29-1.06,0s-.29,.77,0,1.06l1.06-1.06Zm8,1.06c.29-.29,.29-.77,0-1.06s-.77-.29-1.06,0l1.06,1.06Zm-4.53,2.64v0Zm-4.53-2.64l1.17,1.17,1.06-1.06-1.17-1.17-1.06,1.06Zm7.89,1.17l1.17-1.17-1.06-1.06-1.17,1.17,1.06,1.06Zm-6.72,0c.65,.65,1.19,1.19,1.68,1.57,.5,.38,1.04,.65,1.68,.65v-1.5c-.18,0-.4-.06-.77-.35-.39-.3-.85-.75-1.53-1.43l-1.06,1.06Zm5.66-1.06c-.68,.68-1.14,1.14-1.53,1.43-.37,.28-.59,.35-.77,.35v1.5c.64,0,1.18-.27,1.68-.65,.49-.37,1.03-.91,1.68-1.57l-1.06-1.06z"/>
</svg>