<svg xmlns="http://www.w3.org/2000/svg"
  viewBox="0 0 12.38 19.71"
  height="18"
>
  <path d="M8.94,19.71H3.44c-1.9,0-3.44-1.54-3.44-3.44V3.44C0,1.54,1.54,0,3.44,0h5.5c1.9,0,3.44,1.54,3.44,3.44v12.83c0,1.9-1.54,3.44-3.44,3.44ZM3.44,1.38c-1.14,0-2.06,.93-2.06,2.06v12.83c0,1.14,.93,2.06,2.06,2.06h5.5c1.14,0,2.06-.92,2.06-2.06V3.44c0-1.14-.93-2.06-2.06-2.06H3.44z"/>
  <path d="M8.02,2.29h-3.67c-.63,0-1.15-.51-1.15-1.15s.51-1.15,1.15-1.15h3.67c.63,0,1.15,.51,1.15,1.15s-.51,1.15-1.15,1.15z"/>
</svg>