<svg xmlns="http://www.w3.org/2000/svg"
  width="20" height="20"
  viewBox="0 0 20 20"
>
  <path d="M12.96,20H7.04c-3.88,0-7.04-3.16-7.04-7.04V7.04C0,3.16,3.16,0,7.04,0h5.93c3.88,0,7.04,3.16,7.04,7.04v5.93c0,3.88-3.16,7.04-7.04,7.04ZM7.04,1.5C3.98,1.5,1.5,3.98,1.5,7.04v5.93c0,3.05,2.48,5.54,5.54,5.54h5.93c3.05,0,5.54-2.48,5.54-5.54V7.04c0-3.05-2.48-5.54-5.54-5.54H7.04z"/>
  <path d="M13,10.75H7c-.41,0-.75-.34-.75-.75s.34-.75,.75-.75h6c.41,0,.75,.34,.75,.75s-.34,.75-.75,.75z"/>
  <path d="M10,13.75c-.41,0-.75-.34-.75-.75V7c0-.41,.34-.75,.75-.75s.75,.34,.75,.75v6c0,.41-.34,.75-.75,.75z"/>
</svg>