<svg width="18" height="17" viewBox="0 0 18 17" fill="none" xmlns="http://www.w3.org/2000/svg">
<path d="M6.61 13.22C4.84 13.22 3.18 12.53 1.94 11.28C0.69 10.03 0 8.37 0 6.61C0 4.85 0.69 3.18 1.94 1.94C3.18 0.69 4.84 0 6.61 0C8.38 0 10.04 0.69 11.28 1.94C12.53 3.19 13.22 4.85 13.22 6.61C13.22 8.37 12.53 10.04 11.28 11.28C10.03 12.53 8.37 13.22 6.61 13.22ZM6.61 1.5C5.24 1.5 3.96 2.03 3 3C2.03 3.97 1.5 5.25 1.5 6.61C1.5 7.97 2.03 9.26 3 10.22C3.96 11.19 5.25 11.72 6.61 11.72C7.97 11.72 9.26 11.19 10.22 10.22C11.19 9.25 11.72 7.97 11.72 6.61C11.72 5.25 11.19 3.96 10.22 3C9.26 2.03 7.97 1.5 6.61 1.5Z" fill="currentColor"/>
<path d="M16.4002 16.15C16.2102 16.15 16.0202 16.08 15.8702 15.93L12.6902 12.75C12.4002 12.46 12.4002 11.98 12.6902 11.69C12.9802 11.4 13.4602 11.4 13.7502 11.69L16.9302 14.87C17.2202 15.16 17.2202 15.64 16.9302 15.93C16.7802 16.08 16.5902 16.15 16.4002 16.15Z" fill="currentColor"/>
</svg>
