<?xml version="1.0" encoding="UTF-8"?><svg id="a" xmlns="http://www.w3.org/2000/svg" width="24" height="24" viewBox="0 0 24 24"><defs><style>.b{fill:none;}.c{fill:#252525;}</style></defs><rect class="b" width="24" height="24"/><path class="c" d="M2.25,15.22c0-.41,.33-.75,.74-.76,.41,0,.75,.33,.76,.74h-1.5z"/><path class="c" d="M3.05,20.95v.75c-.42,0-.75-.33-.75-.74h.75z"/><path class="c" d="M8.8,20.25c.41,0,.75,.34,.74,.76s-.34,.75-.76,.74v-1.5z"/><path class="c" d="M3.81,21.25c-.29,.29-.77,.29-1.06,0s-.29-.77,0-1.06l1.06,1.06z"/><path class="c" d="M8.57,14.36c.29-.29,.77-.29,1.06,0s.29,.77,0,1.06l-1.06-1.06z"/><path class="c" d="M21.75,8.78c0,.41-.33,.75-.74,.76s-.75-.33-.76-.74h1.5z"/><path class="c" d="M20.95,3.05v-.75c.42,0,.75,.33,.75,.74h-.75z"/><path class="c" d="M15.2,3.75c-.41,0-.75-.34-.74-.76,0-.41,.34-.75,.76-.74v1.5z"/><path class="c" d="M20.19,2.75c.29-.29,.77-.29,1.06,0,.29,.29,.29,.77,0,1.06l-1.06-1.06z"/><path class="c" d="M15.43,9.64c-.29,.29-.77,.29-1.06,0-.29-.29-.29-.77,0-1.06l1.06,1.06z"/><rect class="c" x="2.28" y="15.21" width="1.5" height="5.74" transform="translate(-.17 .03) rotate(-.54)"/><rect class="c" x="5.17" y="18.11" width="1.5" height="5.74" transform="translate(-15.11 26.7) rotate(-89.46)"/><rect class="c" x="2.07" y="17.06" width="8.24" height="1.5" transform="translate(-10.78 9.59) rotate(-45)"/><rect class="c" x="20.22" y="3.05" width="1.5" height="5.74" transform="translate(-.05 .2) rotate(-.54)"/><rect class="c" x="17.33" y=".16" width="1.5" height="5.74" transform="translate(14.88 21.08) rotate(-89.46)"/><rect class="c" x="13.69" y="5.44" width="8.24" height="1.5" transform="translate(.84 14.41) rotate(-45)"/></svg>