<svg xmlns="http://www.w3.org/2000/svg"
  width="18" height="18"
  viewBox="0 0 19 19"
>
  <path d="M6.34,5.85s0,0-.02,0c-.02,0-.05,.01-.12,.02-.15,.02-.35,.02-.7,.02h-.06c-1.16,0-2.1,0-2.79,.09-.64,.08-1.42,.27-1.75,1.01-.05,.13-.1,.26-.12,.39-.15,.77,.36,1.39,.83,1.85,.5,.49,1.27,1.07,2.21,1.78l.04,.03c.28,.22,.45,.34,.56,.45,.1,.09,.11,.13,.11,.13h0s0,.03,.01,.04h0s.01,.05-.02,.19c-.03,.16-.1,.37-.2,.72l-.02,.05c-.36,1.16-.65,2.09-.78,2.8-.07,.36-.11,.71-.07,1.04,.04,.34,.16,.69,.45,.96,.1,.1,.21,.18,.33,.25,.35,.21,.72,.22,1.06,.15,.32-.07,.64-.22,.95-.4,.6-.35,1.36-.93,2.3-1.65l.05-.03c.28-.22,.45-.34,.58-.42,.06-.04,.1-.05,.11-.06h.02s.02,0,.03,0h.02s.05,.03,.11,.06c.13,.08,.3,.21,.58,.42l.05,.03c.94,.71,1.7,1.29,2.3,1.65,.31,.18,.63,.33,.95,.4,.34,.07,.71,.06,1.06-.15,.12-.07,.23-.15,.33-.25,.29-.28,.41-.62,.45-.96,.04-.32,0-.68-.07-1.04-.13-.7-.42-1.64-.78-2.8l-.02-.05c-.11-.35-.17-.56-.2-.72-.03-.14-.02-.18-.02-.19h0s0-.03,.01-.04h0s.01-.04,.11-.13c.11-.11,.28-.23,.56-.45l.04-.03c.94-.71,1.7-1.29,2.21-1.78,.47-.46,.98-1.08,.83-1.85-.03-.13-.07-.27-.12-.39-.32-.74-1.11-.93-1.75-1.01-.69-.09-1.63-.09-2.79-.09h-.06c-.35,0-.55,0-.7-.02-.07,0-.1-.02-.12-.02-.01,0-.02,0-.02,0h0s-.02-.01-.03-.02h0s0,0-.02-.02c-.01-.02-.04-.06-.06-.13-.06-.15-.13-.36-.24-.71l-.02-.05c-.36-1.16-.65-2.09-.94-2.75-.15-.33-.32-.64-.53-.89-.22-.26-.53-.47-.93-.52-.14-.02-.28-.02-.42,0-.4,.05-.71,.27-.93,.52-.21,.25-.38,.56-.53,.89-.29,.65-.58,1.59-.94,2.75l-.02,.05c-.11,.35-.17,.56-.24,.71-.03,.07-.05,.11-.06,.13-.01,.02-.02,.02-.02,.02h0s-.02,.01-.03,.02z"/>
</svg>