<svg width="15" height="18" viewBox="0 0 15 18" fill="none" xmlns="http://www.w3.org/2000/svg">
<path d="M7.30047 8.14C5.06047 8.14 3.23047 6.31 3.23047 4.07C3.23047 1.83 5.05047 0 7.30047 0C9.55047 0 11.3705 1.83 11.3705 4.07C11.3705 6.31 9.54047 8.14 7.30047 8.14ZM7.30047 1.5C5.88047 1.5 4.73047 2.65 4.73047 4.07C4.73047 5.49 5.88047 6.64 7.30047 6.64C8.72047 6.64 9.87047 5.49 9.87047 4.07C9.87047 2.65 8.72047 1.5 7.30047 1.5Z" fill="currentColor"/>
<path d="M12.88 17.69H1.72C0.77 17.69 0 16.92 0 15.97C0 12.43 2.88 9.54999 6.42 9.54999H8.18C11.72 9.54999 14.6 12.43 14.6 15.97C14.6 16.92 13.83 17.69 12.88 17.69ZM6.42 11.05C3.71 11.05 1.5 13.26 1.5 15.97C1.5 16.09 1.6 16.19 1.72 16.19H12.88C13 16.19 13.1 16.09 13.1 15.97C13.1 13.26 10.89 11.05 8.18 11.05H6.42Z" fill="currentColor"/>
</svg>
