<svg width="26" height="19" viewBox="0 0 26 19" fill="none" xmlns="http://www.w3.org/2000/svg">
<path d="M25.9993 9.50002C26.0126 11.6906 25.831 13.8777 25.4568 16.0332C25.3083 16.6083 25.018 17.1326 24.6145 17.5537C24.2111 17.9747 23.7085 18.2778 23.1575 18.4325C21.1302 19 12.9994 19 12.9994 19C12.9994 19 4.87002 19 2.84264 18.4325C2.29164 18.278 1.78917 17.975 1.38565 17.5539C0.982133 17.1328 0.691696 16.6084 0.543437 16.0332C-0.181146 11.7106 -0.181146 7.28941 0.543437 2.96679C0.691696 2.39161 0.982133 1.86722 1.38565 1.44613C1.78917 1.02503 2.29164 0.722014 2.84264 0.567473C4.87002 -2.10362e-05 12.9994 0 12.9994 0C12.9994 0 21.1292 -2.10362e-05 23.1575 0.567473C23.7085 0.722199 24.2111 1.02528 24.6145 1.44634C25.018 1.86741 25.3083 2.39171 25.4568 2.96679C25.831 5.12228 26.0126 7.30944 25.9993 9.50002ZM10.401 13.5717L17.1561 9.50099L10.401 5.43028V13.5717Z" fill="#B09A8E"/>
</svg>